<svg aria-hidden="true" style="position: absolute; width: 0; height: 0; overflow: hidden;" version="1.1" xmlns="http://www.w3.org/2000/svg" xmlns:xlink="http://www.w3.org/1999/xlink">
<defs>
<symbol id="icon-group-7" viewBox="0 0 34 32">
<path fill="#8e8f99" style="fill: var(--color1, #8e8f99)" d="M5.315 31.394c0.013 0 0.025 0.003 0.036 0.007s0.022 0.011 0.030 0.019l0.172 0.162c-0.134 0.131-0.299 0.236-0.485 0.307-0.217 0.078-0.452 0.116-0.687 0.11-0.221 0.004-0.441-0.031-0.646-0.103-0.185-0.066-0.351-0.165-0.487-0.291-0.139-0.13-0.246-0.283-0.315-0.449-0.075-0.185-0.112-0.38-0.11-0.576-0.003-0.197 0.037-0.393 0.119-0.578 0.075-0.167 0.189-0.32 0.334-0.449 0.147-0.127 0.323-0.226 0.517-0.293 0.212-0.070 0.438-0.105 0.666-0.103 0.211-0.004 0.422 0.028 0.618 0.094 0.171 0.063 0.327 0.151 0.463 0.26l-0.144 0.173c-0.010 0.012-0.022 0.023-0.037 0.031-0.017 0.010-0.038 0.015-0.058 0.013-0.022-0.001-0.044-0.008-0.062-0.018l-0.078-0.046-0.108-0.059c-0.046-0.022-0.095-0.041-0.144-0.057-0.064-0.020-0.129-0.035-0.196-0.046-0.085-0.013-0.17-0.019-0.256-0.018-0.164-0.002-0.327 0.025-0.478 0.077-0.142 0.049-0.269 0.123-0.375 0.217-0.107 0.1-0.19 0.218-0.243 0.346-0.061 0.147-0.091 0.301-0.088 0.457-0.003 0.158 0.027 0.315 0.088 0.464 0.053 0.127 0.134 0.244 0.239 0.344 0.099 0.093 0.221 0.166 0.358 0.214 0.141 0.050 0.292 0.075 0.444 0.074 0.088 0.001 0.176-0.004 0.263-0.015 0.142-0.015 0.278-0.057 0.399-0.123 0.060-0.034 0.117-0.072 0.17-0.114 0.022-0.018 0.051-0.029 0.082-0.029z"></path>
<path fill="#8e8f99" style="fill: var(--color1, #8e8f99)" d="M10.292 30.58c0.003 0.195-0.037 0.389-0.116 0.573-0.070 0.166-0.181 0.318-0.325 0.445s-0.317 0.226-0.509 0.292c-0.422 0.137-0.888 0.137-1.31 0-0.191-0.067-0.363-0.166-0.506-0.293-0.144-0.129-0.255-0.282-0.327-0.449-0.155-0.371-0.155-0.776 0-1.147 0.074-0.167 0.185-0.32 0.327-0.451 0.144-0.123 0.317-0.218 0.506-0.282 0.421-0.14 0.889-0.14 1.31 0 0.191 0.066 0.365 0.166 0.508 0.293 0.142 0.128 0.252 0.279 0.325 0.444 0.080 0.184 0.119 0.38 0.116 0.576zM9.839 30.58c0.003-0.156-0.024-0.312-0.082-0.46-0.048-0.127-0.127-0.244-0.231-0.344-0.101-0.095-0.225-0.169-0.364-0.217-0.306-0.101-0.646-0.101-0.952 0-0.139 0.048-0.263 0.123-0.364 0.217-0.105 0.099-0.185 0.217-0.233 0.344-0.11 0.3-0.11 0.621 0 0.92 0.049 0.127 0.128 0.245 0.233 0.344 0.101 0.094 0.225 0.168 0.364 0.215 0.307 0.098 0.645 0.098 0.952 0 0.139-0.048 0.263-0.121 0.364-0.215 0.103-0.1 0.182-0.217 0.231-0.344 0.058-0.148 0.085-0.304 0.082-0.46z"></path>
<path fill="#8e8f99" style="fill: var(--color1, #8e8f99)" d="M13.687 31.062l0.045 0.103c0.017-0.037 0.032-0.070 0.050-0.103 0.016-0.035 0.035-0.068 0.056-0.101l1.101-1.71c0.022-0.029 0.041-0.048 0.063-0.053 0.029-0.008 0.060-0.011 0.090-0.009h0.325v2.781h-0.386v-2.045c0-0.026 0-0.055 0-0.087-0.002-0.032-0.002-0.064 0-0.096l-1.107 1.734c-0.014 0.026-0.037 0.048-0.065 0.063s-0.061 0.023-0.095 0.023h-0.062c-0.034 0-0.066-0.008-0.095-0.023s-0.051-0.037-0.065-0.064l-1.14-1.745c0 0.033 0 0.066 0 0.099s0 0.063 0 0.088v2.045h-0.373v-2.776h0.325c0.031-0.001 0.061 0.002 0.090 0.009 0.027 0.011 0.048 0.030 0.060 0.053l1.125 1.712c0.022 0.032 0.041 0.065 0.056 0.099z"></path>
<path fill="#8e8f99" style="fill: var(--color1, #8e8f99)" d="M17.83 30.924v1.042h-0.431v-2.777h0.961c0.181-0.003 0.362 0.017 0.536 0.061 0.139 0.034 0.269 0.093 0.379 0.173 0.096 0.075 0.169 0.169 0.215 0.272 0.051 0.113 0.076 0.234 0.073 0.355 0.002 0.122-0.025 0.243-0.080 0.355-0.052 0.107-0.131 0.202-0.233 0.278-0.111 0.084-0.24 0.146-0.381 0.184-0.168 0.046-0.343 0.067-0.519 0.064l-0.521-0.007zM17.83 30.626h0.521c0.113 0.001 0.226-0.013 0.334-0.042 0.089-0.026 0.171-0.066 0.241-0.12 0.065-0.051 0.115-0.114 0.146-0.184 0.035-0.074 0.053-0.154 0.052-0.234 0.005-0.077-0.010-0.154-0.043-0.226s-0.085-0.137-0.151-0.19c-0.165-0.11-0.371-0.163-0.579-0.149h-0.521v1.145z"></path>
<path fill="#8e8f99" style="fill: var(--color1, #8e8f99)" d="M23.621 31.97h-0.34c-0.034 0.001-0.068-0.008-0.095-0.026-0.024-0.017-0.044-0.039-0.056-0.064l-0.293-0.672h-1.471l-0.304 0.672c-0.011 0.025-0.030 0.046-0.054 0.063-0.027 0.019-0.062 0.029-0.097 0.028h-0.34l1.293-2.782h0.448l1.31 2.782zM21.488 30.937h1.215l-0.513-1.132c-0.039-0.085-0.072-0.172-0.097-0.261l-0.050 0.145c-0.015 0.044-0.032 0.085-0.047 0.118l-0.509 1.13z"></path>
<path fill="#8e8f99" style="fill: var(--color1, #8e8f99)" d="M25.483 29.201c0.026 0.012 0.048 0.029 0.065 0.050l1.885 2.097c0-0.033 0-0.066 0-0.098s0-0.063 0-0.092v-1.97h0.386v2.782h-0.215c-0.031 0.001-0.061-0.005-0.088-0.017-0.027-0.013-0.050-0.031-0.069-0.052l-1.883-2.095c0.002 0.032 0.002 0.064 0 0.096 0 0.031 0 0.059 0 0.085v1.983h-0.386v-2.782h0.228c0.027-0.001 0.053 0.004 0.078 0.013z"></path>
<path fill="#8e8f99" style="fill: var(--color1, #8e8f99)" d="M30.993 30.863v1.104h-0.431v-1.104l-1.191-1.675h0.386c0.033-0.002 0.066 0.007 0.093 0.024 0.023 0.018 0.043 0.039 0.058 0.063l0.745 1.081c0.030 0.046 0.056 0.088 0.078 0.129s0.039 0.079 0.054 0.118l0.056-0.12c0.021-0.044 0.045-0.086 0.073-0.127l0.735-1.088c0.015-0.022 0.034-0.042 0.056-0.059 0.026-0.019 0.059-0.029 0.093-0.028h0.39l-1.194 1.683z"></path>
<path fill="#8e8f99" style="fill: var(--color1, #8e8f99)" d="M13.474 24.521c0.187 0.020 0.377 0.037 0.569 0.052 2.907-1.111 5.366-2.93 7.070-5.228s2.577-4.975 2.511-7.696l-3.204-2.737c0.651 2.896 0.347 5.89-0.88 8.647s-3.327 5.167-6.066 6.962z"></path>
<path fill="#8e8f99" style="fill: var(--color1, #8e8f99)" d="M12.33 24.393l0.086 0.015c2.927-1.789 5.158-4.286 6.406-7.17s1.454-6.021 0.592-9.006l-4.563-3.899c1.846 3.205 2.589 6.791 2.142 10.342s-2.063 6.921-4.663 9.718z"></path>
<path fill="#8e8f99" style="fill: var(--color1, #8e8f99)" d="M27.805 14.862c-0.775 2.989-2.658 5.685-5.369 7.687-0.792 0.588-1.646 1.112-2.551 1.565 2.207-0.554 4.236-1.534 5.93-2.865s3.008-2.975 3.84-4.808l-1.851-1.579z"></path>
<path fill="#8e8f99" style="fill: var(--color1, #8e8f99)" d="M27.079 14.422l-2.635-2.251c-0.050 2.567-0.904 5.075-2.473 7.264s-3.795 3.98-6.448 5.185h0.013c0.591-0 1.182-0.030 1.769-0.090 2.479-0.865 4.669-2.24 6.375-4.004s2.874-3.861 3.4-6.104z"></path>
<path fill="#8e8f99" style="fill: var(--color1, #8e8f99)" d="M12.711 2.689l-3.143-2.689c-2.81 0.928-5.227 2.559-6.934 4.679s-2.625 4.632-2.634 7.206v0c0.011 2.844 1.131 5.604 3.184 7.843s4.921 3.829 8.151 4.518c2.883-3.001 4.571-6.709 4.818-10.586s-0.958-7.72-3.442-10.971z"></path>
<path fill="#8e8f99" style="fill: var(--color1, #8e8f99)" d="M34.341 14.008c-0.011-3.374-1.585-6.608-4.378-8.994s-6.577-3.731-10.526-3.74c-1.825-0.002-3.634 0.286-5.337 0.849l19.245 16.443c0.659-1.454 0.997-2.999 0.995-4.558z"></path>
</symbol>
<symbol id="icon-Icon-1-1" viewBox="0 0 75 32">
<path fill="#f4f4fd" style="fill: var(--color2, #f4f4fd)" d="M1.143 0h73.143c0.631 0 1.143 0.512 1.143 1.143v29.714c0 0.631-0.512 1.143-1.143 1.143h-73.143c-0.631 0-1.143-0.512-1.143-1.143v-29.714c0-0.631 0.512-1.143 1.143-1.143z"></path>
<path fill="#2e2f42" style="fill: var(--color3, #2e2f42)" d="M46.156 19.484l-4.825-4.86 0.535-2.637c0.138 0.054 0.285 0.082 0.433 0.083h0.004c0.681 0.008 1.24-0.538 1.248-1.219s-0.538-1.24-1.219-1.248c-0.681-0.008-1.24 0.538-1.248 1.219-0.002 0.146 0.022 0.291 0.071 0.428l-2.834 0.346-4.623-4.647c-0.057-0.058-0.134-0.091-0.215-0.091-0.080 0-0.157 0.032-0.213 0.089l-0.864 0.859c-0.119 0.119-0.119 0.312 0 0.431l0.465 0.472c-1.802 3.313-1.217 7.416 1.44 10.093 0.024 0.023 0.053 0.042 0.083 0.056-0.019 0.103-0.029 0.208-0.030 0.313v3.535h-3.657c-0.841 0.001-1.523 0.683-1.524 1.524v0.61c0 0.168 0.137 0.305 0.305 0.305h14.019c0.168 0 0.305-0.136 0.305-0.305v-0.61c-0.001-0.841-0.683-1.523-1.524-1.524h-3.657v-1.567c0.573 0.12 1.157 0.181 1.742 0.183 1.405-0.002 2.787-0.352 4.023-1.019l0.467 0.47c0.057 0.058 0.134 0.091 0.215 0.091 0.080-0 0.157-0.032 0.213-0.089l0.864-0.859c0.119-0.119 0.119-0.312 0-0.431zM41.874 10.419c0.239-0.237 0.625-0.236 0.862 0.002s0.236 0.625-0.003 0.862c-0.114 0.114-0.269 0.177-0.43 0.177h-0.002c-0.337-0.002-0.608-0.276-0.606-0.613 0.001-0.161 0.065-0.315 0.18-0.429h-0.001zM41.157 12.421l-0.342 1.683-0.672-0.676 1.014-1.008zM40.811 11.906l-1.097 1.091-0.849-0.853 1.946-0.237zM42.288 23.314c0.505 0 0.914 0.409 0.914 0.914v0.305h-13.409v-0.305c0-0.505 0.409-0.914 0.914-0.914h11.581zM38.021 22.095v0.61h-3.048v-0.61h3.048zM34.974 21.486v-2.316c0-0.739 0.684-1.341 1.524-1.341s1.524 0.602 1.524 1.341v2.316h-3.048zM38.631 20.517v-1.347c0-1.075-0.957-1.95-2.133-1.95-0.761-0.012-1.472 0.375-1.875 1.021-2.319-2.442-2.841-6.083-1.302-9.078l10.63 10.691c-1.641 0.835-3.523 1.070-5.319 0.665zM45.082 20.126l-12.033-12.103 0.431-0.43 4.534 4.56c0.002 0 0.003 0.004 0.006 0.005l7.494 7.538-0.433 0.43z"></path>
<path fill="#4d5ae5" style="fill: var(--color4, #4d5ae5)" d="M36.5 18.438h-0.003c-0.505-0.001-0.915 0.408-0.915 0.913s0.408 0.915 0.913 0.916h0.003c0.505 0.001 0.915-0.408 0.916-0.913s-0.408-0.915-0.913-0.916zM36.714 19.568c-0.057 0.057-0.135 0.089-0.216 0.089-0.168-0.001-0.304-0.138-0.303-0.306 0.001-0.081 0.033-0.158 0.090-0.215s0.133-0.088 0.213-0.089c0.169 0.001 0.304 0.138 0.303 0.306-0.001 0.081-0.033 0.158-0.090 0.215h0.003z"></path>
</symbol>
<symbol id="icon-Icon-2-1" viewBox="0 0 75 32">
<path fill="#f4f4fd" style="fill: var(--color2, #f4f4fd)" d="M1.143 0h73.143c0.631 0 1.143 0.512 1.143 1.143v29.714c0 0.631-0.512 1.143-1.143 1.143h-73.143c-0.631 0-1.143-0.512-1.143-1.143v-29.714c0-0.631 0.512-1.143 1.143-1.143z"></path>
<path fill="#2e2f42" style="fill: var(--color3, #2e2f42)" d="M46.455 15.601c-0.001-4.83-3.917-8.745-8.747-8.744s-8.745 3.917-8.744 8.747c0.001 3.805 2.461 7.172 6.085 8.329 0.035 0.011 0.071 0.016 0.107 0.016 0.069-0 0.137-0.019 0.196-0.054 0.077-0.046 0.135-0.118 0.162-0.204l2.209-7c0.604-0.003 1.091-0.495 1.087-1.099s-0.495-1.091-1.099-1.088c-0.162 0.001-0.323 0.038-0.469 0.109l-2.918-2.918c-0.145-0.14-0.375-0.136-0.515 0.009-0.137 0.141-0.137 0.365 0 0.506l2.916 2.919c-0.224 0.457-0.096 1.008 0.306 1.319l-2.104 6.67c-4.159-1.532-6.288-6.145-4.756-10.304s6.145-6.288 10.304-4.756c4.159 1.532 6.288 6.145 4.756 10.304-0.749 2.032-2.286 3.675-4.264 4.556l-0.227-1.071c-0.041-0.197-0.235-0.323-0.432-0.281-0.062 0.013-0.12 0.042-0.167 0.085l-2.193 1.957c-0.151 0.134-0.164 0.364-0.030 0.514 0.044 0.049 0.099 0.085 0.162 0.105l2.799 0.893c0.191 0.061 0.397-0.044 0.458-0.235 0.019-0.061 0.023-0.125 0.010-0.187l-0.223-1.051c3.237-1.365 5.338-4.538 5.331-8.051zM37.71 15.236c0.201 0 0.365 0.163 0.365 0.364s-0.163 0.364-0.365 0.364-0.364-0.163-0.364-0.364c0-0.201 0.163-0.364 0.364-0.364zM38.91 23.73l1.248-1.113 0.345 1.623-1.593-0.51z"></path>
<path fill="#4d5ae5" style="fill: var(--color4, #4d5ae5)" d="M37.345 8.677v0.729c0 0.201 0.163 0.364 0.364 0.364s0.365-0.163 0.365-0.364v-0.729c0-0.201-0.163-0.364-0.365-0.364s-0.364 0.163-0.364 0.364z"></path>
<path fill="#4d5ae5" style="fill: var(--color4, #4d5ae5)" d="M30.786 15.236c-0.201 0-0.364 0.163-0.364 0.364s0.163 0.364 0.364 0.364h0.729c0.201 0 0.364-0.163 0.364-0.364s-0.163-0.364-0.364-0.364h-0.729z"></path>
<path fill="#4d5ae5" style="fill: var(--color4, #4d5ae5)" d="M44.633 15.965c0.201 0 0.365-0.163 0.365-0.364s-0.163-0.364-0.365-0.364h-0.729c-0.201 0-0.364 0.163-0.364 0.364s0.163 0.364 0.364 0.364h0.729z"></path>
</symbol>
<symbol id="icon-Icon-3" viewBox="0 0 75 32">
<path fill="#f4f4fd" style="fill: var(--color2, #f4f4fd)" d="M1.143 0h73.143c0.631 0 1.143 0.512 1.143 1.143v29.714c0 0.631-0.512 1.143-1.143 1.143h-73.143c-0.631 0-1.143-0.512-1.143-1.143v-29.714c0-0.631 0.512-1.143 1.143-1.143z"></path>
<path fill="#4d5ae5" style="fill: var(--color4, #4d5ae5)" d="M37.1 15.408h0.609v2.741h-0.609v-2.741z"></path>
<path fill="#4d5ae5" style="fill: var(--color4, #4d5ae5)" d="M39.537 16.627h0.609v1.523h-0.609v-1.523z"></path>
<path fill="#4d5ae5" style="fill: var(--color4, #4d5ae5)" d="M34.663 17.541h0.609v0.609h-0.609v-0.609z"></path>
<path fill="#4d5ae5" style="fill: var(--color4, #4d5ae5)" d="M32.836 17.236h0.609v0.914h-0.609v-0.914z"></path>
<path fill="#2e2f42" style="fill: var(--color3, #2e2f42)" d="M29.485 23.023h14.621c0.505 0 0.914-0.409 0.914-0.914v-1.218c0-0.505-0.409-0.914-0.914-0.914h-0.305v-7.596l1.73-1.639c0.402 0.198 0.888 0.078 1.151-0.285s0.226-0.862-0.087-1.182c-0.313-0.32-0.812-0.368-1.18-0.113s-0.499 0.738-0.31 1.144l-1.304 1.236v-0.703c0-0.505-0.409-0.914-0.914-0.914h-12.184c-0.505 0-0.914 0.409-0.914 0.914v9.138h-0.305c-0.505 0-0.914 0.409-0.914 0.914v1.218c0 0.505 0.409 0.914 0.914 0.914zM45.934 9.621c0.168 0 0.305 0.136 0.305 0.305s-0.136 0.305-0.305 0.305c-0.168 0-0.305-0.136-0.305-0.305s0.136-0.305 0.305-0.305zM30.399 10.839c0-0.168 0.136-0.305 0.305-0.305h12.184c0.168 0 0.305 0.136 0.305 0.305v1.279l-0.609 0.579v-1.249c0-0.168-0.136-0.305-0.305-0.305h-10.966c-0.168 0-0.305 0.136-0.305 0.305v7.615c0 0.168 0.136 0.305 0.305 0.305h10.966c0.168 0 0.305-0.136 0.305-0.305v-5.528l0.609-0.577v7.019h-12.793v-9.138zM33.141 14.799c-0.412-0.001-0.774 0.273-0.884 0.671s0.060 0.819 0.415 1.029c0.354 0.21 0.806 0.157 1.102-0.129l1.059 0.531c0.123 0.062 0.272 0.033 0.364-0.070l2.251-2.532 2.213 1.658c0.119 0.089 0.285 0.079 0.392-0.022l1.923-1.822v4.646h-10.357v-7.006h10.357v1.52l-2.155 2.041-2.231-1.673c-0.127-0.095-0.305-0.077-0.41 0.041l-2.282 2.567-0.853-0.427c0.006-0.037 0.010-0.073 0.012-0.111 0-0.505-0.409-0.914-0.914-0.914zM33.445 15.713c0 0.168-0.137 0.305-0.305 0.305s-0.305-0.136-0.305-0.305 0.136-0.305 0.305-0.305c0.168 0 0.305 0.136 0.305 0.305zM35.273 20.587h3.046v0.305c0 0.168-0.136 0.305-0.305 0.305h-2.437c-0.168 0-0.305-0.136-0.305-0.305v-0.305zM29.181 20.891c0-0.168 0.137-0.305 0.305-0.305h5.178v0.305c0 0.505 0.409 0.914 0.914 0.914h2.437c0.505 0 0.914-0.409 0.914-0.914v-0.305h5.178c0.168 0 0.305 0.136 0.305 0.305v1.218c0 0.168-0.137 0.305-0.305 0.305h-14.621c-0.168 0-0.305-0.136-0.305-0.305v-1.218z"></path>
</symbol>
<symbol id="icon-Icon-4" viewBox="0 0 73 32">
<path fill="#f4f4fd" style="fill: var(--color2, #f4f4fd)" d="M2.133 0h68.267c0.589 0 1.067 0.478 1.067 1.067v27.733c0 0.589-0.478 1.067-1.067 1.067h-68.267c-0.589 0-1.067-0.478-1.067-1.067v-27.733c0-0.589 0.478-1.067 1.067-1.067z"></path>
<path fill="#4d5ae5" style="fill: var(--color4, #4d5ae5)" d="M44.786 8.813c-0.034-0.103-0.122-0.178-0.23-0.193l-1.019-0.148-0.456-0.923c-0.096-0.195-0.415-0.195-0.51 0l-0.456 0.923-1.019 0.148c-0.107 0.016-0.196 0.090-0.23 0.193s-0.006 0.216 0.072 0.292l0.738 0.719-0.174 1.015c-0.018 0.107 0.026 0.214 0.113 0.278 0.089 0.064 0.204 0.072 0.3 0.022l0.911-0.479 0.911 0.479c0.041 0.022 0.087 0.033 0.133 0.033 0.059 0 0.118-0.018 0.167-0.054 0.087-0.064 0.131-0.172 0.113-0.278l-0.174-1.015 0.738-0.719c0.077-0.076 0.105-0.189 0.072-0.292zM43.473 9.521c-0.067 0.065-0.098 0.16-0.082 0.252l0.102 0.594-0.534-0.28c-0.042-0.022-0.087-0.033-0.133-0.033s-0.091 0.011-0.133 0.033l-0.534 0.28 0.102-0.594c0.016-0.092-0.015-0.186-0.082-0.252l-0.432-0.421 0.597-0.087c0.093-0.013 0.173-0.072 0.214-0.156l0.267-0.54 0.267 0.54c0.042 0.084 0.122 0.142 0.214 0.156l0.597 0.087-0.431 0.421z"></path>
<path fill="#4d5ae5" style="fill: var(--color4, #4d5ae5)" d="M41.671 17.345h-0.569v0.569h0.569v-0.569z"></path>
<path fill="#4d5ae5" style="fill: var(--color4, #4d5ae5)" d="M41.671 18.483h-0.569v0.569h0.569v-0.569z"></path>
<path fill="#4d5ae5" style="fill: var(--color4, #4d5ae5)" d="M42.24 17.914h-0.569v0.569h0.569v-0.569z"></path>
<path fill="#4d5ae5" style="fill: var(--color4, #4d5ae5)" d="M41.102 17.914h-0.569v0.569h0.569v-0.569z"></path>
<path fill="#4d5ae5" style="fill: var(--color4, #4d5ae5)" d="M39.68 20.474h-0.569v0.569h0.569v-0.569z"></path>
<path fill="#4d5ae5" style="fill: var(--color4, #4d5ae5)" d="M39.68 21.612h-0.569v0.569h0.569v-0.569z"></path>
<path fill="#4d5ae5" style="fill: var(--color4, #4d5ae5)" d="M40.249 21.043h-0.569v0.569h0.569v-0.569z"></path>
<path fill="#4d5ae5" style="fill: var(--color4, #4d5ae5)" d="M39.111 21.043h-0.569v0.569h0.569v-0.569z"></path>
<path fill="#4d5ae5" style="fill: var(--color4, #4d5ae5)" d="M36.267 19.336h-0.569v0.569h0.569v-0.569z"></path>
<path fill="#4d5ae5" style="fill: var(--color4, #4d5ae5)" d="M36.267 20.474h-0.569v0.569h0.569v-0.569z"></path>
<path fill="#4d5ae5" style="fill: var(--color4, #4d5ae5)" d="M36.835 19.905h-0.569v0.569h0.569v-0.569z"></path>
<path fill="#4d5ae5" style="fill: var(--color4, #4d5ae5)" d="M35.698 19.905h-0.569v0.569h0.569v-0.569z"></path>
<path fill="#4d5ae5" style="fill: var(--color4, #4d5ae5)" d="M30.862 9.665h-0.569v0.569h0.569v-0.569z"></path>
<path fill="#4d5ae5" style="fill: var(--color4, #4d5ae5)" d="M30.862 10.803h-0.569v0.569h0.569v-0.569z"></path>
<path fill="#4d5ae5" style="fill: var(--color4, #4d5ae5)" d="M31.431 10.234h-0.569v0.569h0.569v-0.569z"></path>
<path fill="#4d5ae5" style="fill: var(--color4, #4d5ae5)" d="M30.293 10.234h-0.569v0.569h0.569v-0.569z"></path>
<path fill="#2e2f42" style="fill: var(--color3, #2e2f42)" d="M40.915 13.952c-0.153-0.207-0.378-0.34-0.634-0.376-0.257-0.036-0.51 0.031-0.715 0.188l-0.668 0.512-1.012 0.756-0.724-0.288c1.291-0.579 2.194-1.871 2.194-3.371 0-2.039-1.665-3.698-3.713-3.698s-3.713 1.659-3.713 3.698c0 0.739 0.221 1.426 0.598 2.004l-1.474-0.013c-0.001 0-0.002 0-0.003 0-0.005 0-0.008 0.002-0.013 0.003-0.028 0.001-0.056 0.007-0.083 0.016-0.007 0.003-0.014 0.004-0.021 0.007-0.003 0.001-0.007 0.002-0.010 0.003l-1.724 0.851c-0 0-0.001 0-0.001 0l-1.010 0.486c-0.011 0.005-0.023 0.011-0.034 0.019-0.403 0.268-0.54 0.794-0.319 1.224 0.118 0.229 0.317 0.397 0.563 0.474 0.095 0.030 0.191 0.044 0.288 0.044 0.154 0 0.307-0.038 0.447-0.113l0.74-0.394 1.207-0.624 0.724-0.004-2.902 2.888c-0 0-0.001 0-0.001 0.001l-0.714 0.711c-0.169 0.168-0.262 0.391-0.262 0.628s0.093 0.46 0.262 0.629c0.173 0.172 0.401 0.259 0.629 0.259s0.456-0.086 0.63-0.259l0.701-0.698 0.929-0.693 0.48 0.478-0.939 0.936c-0 0-0.001 0-0.001 0.001l-0.714 0.711c-0.169 0.168-0.261 0.391-0.261 0.628s0.093 0.46 0.261 0.629c0.173 0.172 0.401 0.259 0.629 0.259s0.456-0.086 0.629-0.259l1.857-1.849c0-0 0-0.001 0.001-0.001l0.538-0.533-0.002-0.002c0.003-0.003 0.008-0.005 0.012-0.008l2.755-3.018 1.851 0.263c0.013 0.002 0.027 0.003 0.040 0.003 0.035 0 0.068-0.008 0.1-0.020 0.009-0.003 0.018-0.008 0.026-0.012 0.010-0.005 0.021-0.008 0.031-0.014l1.714-1.138c0.006-0.004 0.010-0.011 0.016-0.016s0.015-0.008 0.022-0.014l0.678-0.635c0.353-0.331 0.401-0.872 0.113-1.26zM28.87 15.877c-0.093 0.050-0.197 0.059-0.298 0.028-0.099-0.031-0.18-0.099-0.227-0.191-0.086-0.167-0.036-0.371 0.114-0.481l0.701-0.337 0.169 0.493 0.071 0.207-0.529 0.281zM30.735 14.903l-0.826 0.427-0.136-0.398-0.098-0.286 1.081-0.534-0.021 0.791zM38.788 11.372c0 0.49-0.117 0.952-0.319 1.365l-2.23-1.013c-0.023-0.306-0.182-0.573-0.42-0.74l0.781-2.592c1.268 0.403 2.189 1.586 2.189 2.98zM32.5 11.372c0-1.725 1.41-3.129 3.144-3.129 0.135 0 0.267 0.011 0.397 0.028l-0.764 2.535c-0.010-0-0.020-0.003-0.030-0.003-0.551 0-0.999 0.447-0.999 0.996s0.448 0.996 0.999 0.996c0.37 0 0.69-0.204 0.863-0.504l2.060 0.936c-0.573 0.771-1.49 1.275-2.526 1.275-1.733 0-3.144-1.404-3.144-3.129zM35.677 11.798c0 0.235-0.193 0.427-0.43 0.427s-0.43-0.191-0.43-0.427 0.193-0.427 0.43-0.427c0.237 0 0.43 0.191 0.43 0.427zM29.048 19.811c-0.126 0.125-0.33 0.125-0.456 0-0.061-0.061-0.094-0.14-0.094-0.226s0.033-0.165 0.094-0.225l0.513-0.511 0.454 0.452-0.511 0.509zM30.762 21.802c-0.126 0.125-0.33 0.125-0.456 0-0.061-0.061-0.094-0.14-0.094-0.226s0.033-0.165 0.094-0.225l0.513-0.511 0.454 0.452-0.512 0.509zM32.619 19.952c-0 0-0.001 0-0.001 0.001l-0.941 0.939-0.454-0.452 0.941-0.936c0 0 0 0 0-0s0.001-0 0.001-0.001c0.021-0.021 0.035-0.047 0.048-0.072 0.004-0.007 0.011-0.014 0.014-0.021 0.009-0.022 0.010-0.046 0.014-0.069 0.002-0.013 0.007-0.025 0.007-0.039 0-0.019-0.007-0.038-0.011-0.056-0.003-0.017-0.003-0.034-0.010-0.051-0.011-0.027-0.029-0.050-0.049-0.073-0.005-0.006-0.007-0.014-0.013-0.020 0 0 0 0-0 0s-0-0.001-0.001-0.001l-0.857-0.853c-0.009-0.009-0.021-0.013-0.031-0.020-0.015-0.012-0.030-0.022-0.046-0.031s-0.033-0.013-0.050-0.017c-0.018-0.005-0.036-0.009-0.055-0.011-0.017-0.001-0.034 0.001-0.051 0.003-0.019 0.002-0.037 0.005-0.055 0.011s-0.034 0.015-0.050 0.024c-0.011 0.006-0.023 0.008-0.033 0.015l-0.946 0.706-0.48-0.478 1.279-1.273 2.326 2.287-0.495 0.49zM36.255 16.21c-0.008-0.001-0.016 0.002-0.024 0.001-0.021-0.001-0.041 0-0.062 0.004-0.016 0.003-0.031 0.006-0.047 0.011-0.018 0.006-0.035 0.015-0.051 0.025s-0.030 0.020-0.044 0.033c-0.007 0.006-0.015 0.009-0.021 0.016l-2.506 2.744-2.308-2.27 1.511-1.503c0.111-0.111 0.112-0.291 0.001-0.402-0.056-0.056-0.13-0.084-0.203-0.083v-0l-1.183 0.007 0.015-0.857 1.655 0.014c0.675 0.69 1.616 1.12 2.657 1.12 0.233 0 0.461-0.024 0.682-0.065 0.021 0.017 0.042 0.034 0.069 0.045l1.285 0.512 0.081 0.404 0.095 0.472-1.602-0.228zM38.411 16.305l-0.167-0.831 0.771-0.576 0.202 0.268 0.303 0.402-1.109 0.737zM40.413 14.795l-0.447 0.419-0.497-0.659 0.443-0.34c0.083-0.064 0.187-0.090 0.289-0.076 0.103 0.014 0.194 0.068 0.256 0.152 0.116 0.156 0.096 0.373-0.045 0.505z"></path>
<path fill="#2e2f42" style="fill: var(--color3, #2e2f42)" d="M34.988 16.29l-1.143-1.138c-0.111-0.111-0.29-0.111-0.401 0l-1.143 1.138c-0.053 0.054-0.083 0.126-0.083 0.202s0.030 0.148 0.083 0.202l1.143 1.138c0.055 0.055 0.128 0.083 0.201 0.083s0.145-0.028 0.201-0.083l1.143-1.138c0.054-0.053 0.084-0.126 0.084-0.202s-0.030-0.148-0.084-0.202zM33.644 17.228l-0.739-0.736 0.739-0.736 0.74 0.736-0.74 0.736z"></path>
<path fill="#2e2f42" style="fill: var(--color3, #2e2f42)" d="M36.887 9.104l-0.137 0.552c0.038 0.009 0.927 0.241 0.927 1.146h0.569c0-1.076-0.888-1.582-1.358-1.698z"></path>
<path fill="#2e2f42" style="fill: var(--color3, #2e2f42)" d="M38.246 11.372h-0.569v0.569h0.569v-0.569z"></path>
</symbol>
<symbol id="icon-Client-1" viewBox="0 0 61 32">
<path fill="#8e8f99" style="fill: var(--color1, #8e8f99)" d="M25.455 8.364l2.548 2.428-4.73-0.003v11.779h12.364v-4.504l2.545 2.425v-12.125h-12.727zM35.525 17.779l-7.225-6.884h7.225v6.884zM33.281 20.845h-8.052v-7.922h0.569v7.386h7.483v0.536zM26.835 24.75l-0.3-0.617h-0.248l0.435 0.817v0.476h0.225v-0.476l0.435-0.817h-0.247l-0.3 0.617zM27.941 24.132h0.053l0.488 1.293h-0.234l-0.105-0.303h-0.5l-0.104 0.303h-0.233l0.486-1.293h0.149zM27.704 24.946h0.378l-0.189-0.548-0.189 0.548zM29.266 24.732c-0.010-0.012-0.019-0.024-0.028-0.036-0.033-0.044-0.059-0.086-0.077-0.127s-0.028-0.084-0.028-0.128c0-0.067 0.014-0.125 0.042-0.174s0.067-0.086 0.118-0.112c0.051-0.027 0.11-0.040 0.178-0.040 0.066 0 0.122 0.013 0.17 0.040s0.085 0.061 0.11 0.104c0.026 0.043 0.039 0.091 0.039 0.142 0 0.041-0.007 0.078-0.022 0.112s-0.035 0.064-0.061 0.092c-0.026 0.028-0.056 0.054-0.091 0.079l-0.090 0.065 0.256 0.302c0.008-0.017 0.016-0.034 0.023-0.052 0.022-0.057 0.033-0.12 0.033-0.189h0.185c0 0.063-0.006 0.122-0.019 0.178s-0.031 0.108-0.058 0.156c-0.011 0.020-0.023 0.039-0.037 0.057l0.189 0.224h-0.248l-0.075-0.088c-0.041 0.031-0.085 0.055-0.133 0.072-0.063 0.022-0.13 0.034-0.201 0.034-0.086 0-0.16-0.016-0.223-0.047s-0.111-0.075-0.146-0.13c-0.034-0.055-0.051-0.118-0.051-0.189 0-0.053 0.011-0.099 0.033-0.139s0.052-0.078 0.090-0.112c0.035-0.032 0.075-0.063 0.12-0.095zM29.372 24.861l-0.027 0.019c-0.031 0.025-0.055 0.050-0.070 0.074s-0.025 0.044-0.029 0.064c-0.005 0.020-0.007 0.037-0.007 0.052 0 0.038 0.008 0.072 0.024 0.103s0.041 0.055 0.072 0.074c0.032 0.018 0.071 0.027 0.116 0.027 0.049 0 0.097-0.011 0.143-0.033 0.023-0.011 0.045-0.025 0.066-0.041l-0.288-0.338zM29.423 24.625l0.079-0.053c0.037-0.025 0.064-0.049 0.080-0.073s0.024-0.054 0.024-0.091c0-0.031-0.012-0.059-0.036-0.085s-0.057-0.039-0.1-0.039c-0.030 0-0.056 0.007-0.076 0.021s-0.036 0.032-0.047 0.055c-0.010 0.022-0.015 0.048-0.015 0.075 0 0.027 0.007 0.054 0.020 0.083s0.032 0.057 0.056 0.088c0.005 0.006 0.010 0.012 0.015 0.019zM31.685 25.004h-0.222c-0.006 0.056-0.020 0.104-0.041 0.143s-0.050 0.068-0.090 0.088c-0.039 0.020-0.090 0.030-0.154 0.030-0.052 0-0.097-0.010-0.134-0.031s-0.068-0.050-0.092-0.088c-0.024-0.038-0.041-0.083-0.053-0.136s-0.017-0.112-0.017-0.178v-0.109c0-0.069 0.006-0.13 0.019-0.183s0.032-0.099 0.058-0.136c0.025-0.037 0.057-0.064 0.095-0.083s0.082-0.028 0.133-0.028c0.062 0 0.112 0.011 0.151 0.032s0.067 0.051 0.087 0.091c0.020 0.040 0.033 0.087 0.039 0.143h0.222c-0.009-0.086-0.033-0.163-0.073-0.23s-0.094-0.119-0.165-0.157c-0.071-0.038-0.158-0.057-0.261-0.057-0.081 0-0.154 0.014-0.219 0.043s-0.12 0.070-0.166 0.123c-0.046 0.053-0.082 0.117-0.107 0.193s-0.036 0.159-0.036 0.252v0.107c0 0.093 0.012 0.177 0.036 0.252s0.059 0.139 0.105 0.193c0.046 0.053 0.1 0.093 0.164 0.122s0.136 0.043 0.216 0.043c0.104 0 0.193-0.019 0.265-0.057s0.129-0.090 0.17-0.155c0.040-0.066 0.064-0.142 0.071-0.226zM32.918 24.814v-0.071c0-0.098-0.013-0.185-0.039-0.262s-0.062-0.144-0.109-0.198c-0.047-0.055-0.104-0.097-0.17-0.125s-0.139-0.044-0.218-0.044c-0.079 0-0.152 0.015-0.218 0.044s-0.122 0.070-0.17 0.125c-0.047 0.054-0.084 0.12-0.11 0.198s-0.039 0.164-0.039 0.262v0.071c0 0.098 0.013 0.185 0.039 0.263s0.064 0.144 0.112 0.198c0.048 0.054 0.104 0.096 0.17 0.125s0.138 0.043 0.218 0.043c0.080 0 0.153-0.014 0.218-0.043s0.122-0.071 0.169-0.125c0.047-0.054 0.084-0.12 0.109-0.198s0.038-0.165 0.038-0.263zM32.695 24.741v0.073c0 0.072-0.007 0.136-0.021 0.192s-0.034 0.103-0.060 0.141c-0.027 0.038-0.059 0.067-0.098 0.086s-0.083 0.028-0.132 0.028c-0.049 0-0.093-0.009-0.131-0.028s-0.072-0.048-0.099-0.086c-0.027-0.038-0.048-0.086-0.062-0.141s-0.021-0.12-0.021-0.192v-0.073c0-0.072 0.007-0.136 0.021-0.191s0.035-0.102 0.061-0.139c0.027-0.038 0.060-0.066 0.099-0.085s0.082-0.029 0.131-0.029 0.093 0.010 0.132 0.029c0.039 0.019 0.072 0.047 0.099 0.085s0.048 0.084 0.061 0.139c0.014 0.055 0.021 0.119 0.021 0.191z"></path>
</symbol>
<symbol id="icon-Ellipse-4" viewBox="0 0 32 32">
<path fill="#4d5ae5" style="fill: var(--color4, #4d5ae5)" d="M29.333 13.333c0 3.682-1.492 7.015-3.905 9.428s-5.746 3.905-9.428 3.905c-3.682 0-7.015-1.492-9.428-3.905s-3.905-5.746-3.905-9.428 1.492-7.015 3.905-9.428c2.413-2.413 5.746-3.905 9.428-3.905s7.015 1.492 9.428 3.905c2.413 2.413 3.905 5.746 3.905 9.428z"></path>
<path fill="#f4f4fd" style="fill: var(--color2, #f4f4fd)" d="M23.984 10.037c-0.037-0.85-0.175-1.435-0.372-1.941-0.203-0.538-0.516-1.019-0.925-1.419-0.4-0.406-0.885-0.722-1.416-0.922-0.509-0.197-1.091-0.334-1.941-0.372-0.856-0.041-1.128-0.050-3.301-0.050s-2.444 0.009-3.298 0.047c-0.85 0.037-1.435 0.175-1.941 0.372-0.538 0.203-1.019 0.516-1.419 0.925-0.406 0.4-0.722 0.885-0.922 1.416-0.197 0.51-0.334 1.091-0.372 1.941-0.041 0.856-0.050 1.128-0.050 3.301s0.009 2.444 0.047 3.298c0.037 0.85 0.175 1.435 0.372 1.941 0.203 0.538 0.519 1.019 0.925 1.419 0.4 0.406 0.885 0.722 1.416 0.922 0.509 0.197 1.091 0.334 1.941 0.372 0.853 0.038 1.125 0.047 3.297 0.047s2.444-0.009 3.298-0.047c0.85-0.037 1.435-0.175 1.941-0.372 1.075-0.416 1.925-1.266 2.341-2.341 0.197-0.509 0.334-1.091 0.372-1.941 0.037-0.853 0.047-1.125 0.047-3.298s-0.003-2.444-0.041-3.297zM22.544 16.57c-0.034 0.781-0.166 1.203-0.275 1.485-0.269 0.697-0.822 1.25-1.519 1.519-0.281 0.109-0.706 0.241-1.485 0.275-0.844 0.038-1.097 0.047-3.232 0.047s-2.391-0.009-3.232-0.047c-0.781-0.034-1.203-0.166-1.485-0.275-0.347-0.128-0.663-0.331-0.919-0.597-0.266-0.259-0.469-0.572-0.597-0.919-0.109-0.281-0.241-0.706-0.275-1.485-0.038-0.844-0.047-1.097-0.047-3.232s0.009-2.391 0.047-3.232c0.034-0.781 0.166-1.203 0.275-1.485 0.128-0.347 0.331-0.663 0.6-0.919 0.259-0.266 0.572-0.469 0.919-0.597 0.281-0.109 0.706-0.241 1.485-0.275 0.844-0.037 1.097-0.047 3.232-0.047 2.138 0 2.391 0.009 3.232 0.047 0.781 0.034 1.203 0.166 1.485 0.275 0.347 0.128 0.663 0.331 0.919 0.597 0.266 0.259 0.469 0.572 0.597 0.919 0.109 0.281 0.241 0.706 0.275 1.485 0.037 0.844 0.047 1.097 0.047 3.232s-0.009 2.385-0.047 3.229z"></path>
<path fill="#f4f4fd" style="fill: var(--color2, #f4f4fd)" d="M16.030 9.225c-2.269 0-4.11 1.841-4.11 4.11s1.841 4.11 4.11 4.11c2.269 0 4.11-1.841 4.11-4.11s-1.841-4.11-4.11-4.11zM16.030 16.001c-1.472 0-2.666-1.194-2.666-2.666s1.194-2.666 2.666-2.666c1.472 0 2.666 1.194 2.666 2.666s-1.194 2.666-2.666 2.666z"></path>
<path fill="#f4f4fd" style="fill: var(--color2, #f4f4fd)" d="M21.262 9.062c0 0.53-0.43 0.96-0.96 0.96s-0.96-0.43-0.96-0.96c0-0.53 0.43-0.96 0.96-0.96s0.96 0.429 0.96 0.96z"></path>
</symbol>
<symbol id="icon-Ellipse-5" viewBox="0 0 32 32">
<path fill="#4d5ae5" style="fill: var(--color4, #4d5ae5)" d="M32 16c0 4.418-1.791 8.418-4.686 11.314s-6.895 4.686-11.314 4.686c-4.418 0-8.418-1.791-11.314-4.686s-4.686-6.895-4.686-11.314c0-4.418 1.791-8.418 4.686-11.314s6.895-4.686 11.314-4.686c4.418 0 8.418 1.791 11.314 4.686s4.686 6.895 4.686 11.314z"></path>
<path fill="#f4f4fd" style="fill: var(--color2, #f4f4fd)" d="M25.6 10.047c-0.714 0.313-1.475 0.521-2.268 0.622 0.816-0.487 1.439-1.253 1.732-2.176-0.761 0.454-1.601 0.774-2.496 0.953-0.722-0.769-1.752-1.246-2.875-1.246-2.179 0-3.934 1.769-3.934 3.937 0 0.312 0.026 0.612 0.091 0.898-3.272-0.16-6.168-1.728-8.113-4.117-0.34 0.589-0.539 1.264-0.539 1.99 0 1.363 0.702 2.572 1.748 3.271-0.632-0.012-1.253-0.196-1.778-0.485 0 0.012 0 0.028 0 0.043 0 1.913 1.364 3.502 3.154 3.868-0.32 0.088-0.67 0.13-1.032 0.13-0.252 0-0.506-0.014-0.745-0.067 0.51 1.559 1.957 2.705 3.678 2.742-1.339 1.048-3.040 1.679-4.88 1.679-0.323 0-0.632-0.014-0.942-0.054 1.744 1.124 3.81 1.766 6.038 1.766 7.243 0 11.203-6 11.203-11.201 0-0.174-0.006-0.342-0.014-0.509 0.781-0.554 1.438-1.247 1.973-2.044z"></path>
</symbol>
<symbol id="icon-Ellipse-6" viewBox="0 0 32 32">
<path fill="#4d5ae5" style="fill: var(--color4, #4d5ae5)" d="M32 16c0 4.418-1.791 8.418-4.686 11.314s-6.895 4.686-11.314 4.686c-4.418 0-8.418-1.791-11.314-4.686s-4.686-6.895-4.686-11.314c0-4.418 1.791-8.418 4.686-11.314s6.895-4.686 11.314-4.686c4.418 0 8.418 1.791 11.314 4.686s4.686 6.895 4.686 11.314z"></path>
<path fill="#f4f4fd" style="fill: var(--color2, #f4f4fd)" d="M19.198 9.588h1.753v-3.053c-0.302-0.042-1.342-0.135-2.554-0.135-2.527 0-4.258 1.59-4.258 4.511v2.689h-2.789v3.413h2.789v8.587h3.419v-8.586h2.676l0.425-3.413h-3.102v-2.351c0.001-0.986 0.266-1.662 1.641-1.662z"></path>
</symbol>
<symbol id="icon-Ellipse-7" viewBox="0 0 32 32">
<path fill="#4d5ae5" style="fill: var(--color4, #4d5ae5)" d="M32 16c0 4.418-1.791 8.418-4.686 11.314s-6.895 4.686-11.314 4.686c-4.418 0-8.418-1.791-11.314-4.686s-4.686-6.895-4.686-11.314c0-4.418 1.791-8.418 4.686-11.314s6.895-4.686 11.314-4.686c4.418 0 8.418 1.791 11.314 4.686s4.686 6.895 4.686 11.314z"></path>
<path fill="#f4f4fd" style="fill: var(--color2, #f4f4fd)" d="M25.595 25.6v-0.001h0.005v-7.042c0-3.445-0.742-6.098-4.769-6.098-1.936 0-3.235 1.062-3.766 2.070h-0.056v-1.748h-3.818v12.818h3.976v-6.347c0-1.671 0.317-3.287 2.386-3.287 2.039 0 2.070 1.907 2.070 3.394v6.241h3.972z"></path>
<path fill="#f4f4fd" style="fill: var(--color2, #f4f4fd)" d="M6.717 12.782h3.981v12.818h-3.981v-12.818z"></path>
<path fill="#f4f4fd" style="fill: var(--color2, #f4f4fd)" d="M8.706 6.4c-1.273 0-2.306 1.033-2.306 2.306s1.033 2.327 2.306 2.327c1.273 0 2.306-1.054 2.306-2.327s-1.034-2.306-2.306-2.306v0z"></path>
</symbol>
<symbol id="icon-group-1" viewBox="0 0 25 32">
<path fill="#8e8f99" style="fill: var(--color1, #8e8f99)" d="M10.531 1.806h-0.084c-0.129-0.008-0.258-0.011-0.388-0.014v0h-0.28c-0.244 0-0.494 0.006-0.741 0.019-0.019-0.001-0.037-0.001-0.056 0-2.243 0.127-4.44 0.688-6.471 1.651l-0.266 0.128v13.625l0.623-0.211c0.546-0.188 1.129-0.357 1.731-0.513 1.629-0.418 3.301-0.64 4.982-0.662v1.79c-0.223 0.002-0.439 0.008-0.655 0.019h-0.051c-1.294 0.071-2.577 0.268-3.833 0.588-1.59 0.398-3.124 0.996-4.566 1.779v-17.475c1.497-0.873 3.11-1.529 4.79-1.948 1.475-0.381 2.992-0.576 4.515-0.582h0.263c0.314 0.008 0.621 0.022 0.909 0.044 0.759 0.053 1.511 0.173 2.249 0.358v1.762c-0.717-0.167-1.445-0.277-2.179-0.329-0.015-0.001-0.030-0.003-0.045-0.004-0.152-0.013-0.304-0.026-0.446-0.026zM13.633 3.607c0.391 0.030 0.796 0.044 1.205 0.044 1.601-0.006 3.195-0.21 4.747-0.609 1.589-0.4 3.123-0.998 4.564-1.781v17.163c-1.498 0.873-3.111 1.529-4.792 1.948-1.475 0.379-2.992 0.574-4.515 0.581-1.154 0.009-2.304-0.126-3.425-0.404v-17.275c0.265 0.061 0.537 0.117 0.814 0.164 0.455 0.077 0.934 0.133 1.401 0.167zM22.367 3.74l-0.623 0.21c-0.573 0.192-1.15 0.365-1.731 0.518-1.691 0.434-3.428 0.657-5.173 0.663-0.406 0-0.78-0.011-1.141-0.034l-0.497-0.033v14.017l0.427 0.038c0.395 0.034 0.803 0.052 1.214 0.052 1.374-0.006 2.743-0.183 4.074-0.527 1.096-0.275 2.162-0.658 3.184-1.144l0.266-0.128v-13.63z"></path>
<path fill="#8e8f99" style="fill: var(--color1, #8e8f99)" d="M1.684 25.977c-0.090-0.093-0.197-0.166-0.317-0.214s-0.247-0.071-0.376-0.066c-0.137-0.002-0.273 0.024-0.4 0.075-0.117 0.046-0.222 0.116-0.311 0.205s-0.156 0.196-0.201 0.313c-0.049 0.123-0.073 0.254-0.072 0.387v2.335c-0.006 0.165 0.026 0.328 0.092 0.479 0.055 0.12 0.135 0.226 0.233 0.313 0.093 0.079 0.203 0.135 0.321 0.166 0.114 0.032 0.231 0.048 0.349 0.049 0.13 0.001 0.259-0.027 0.377-0.081 0.117-0.051 0.222-0.124 0.311-0.216 0.087-0.091 0.156-0.197 0.204-0.313 0.050-0.118 0.075-0.244 0.075-0.372v-0.261h-0.61v0.208c0.002 0.071-0.010 0.142-0.036 0.208-0.020 0.050-0.050 0.095-0.089 0.131-0.038 0.031-0.081 0.053-0.128 0.067-0.041 0.014-0.084 0.021-0.128 0.022-0.054 0.006-0.11-0.002-0.16-0.024s-0.094-0.057-0.126-0.101c-0.058-0.094-0.086-0.203-0.081-0.313v-2.177c-0.004-0.121 0.022-0.241 0.075-0.349 0.032-0.049 0.077-0.089 0.129-0.114s0.112-0.034 0.17-0.027c0.053-0.002 0.105 0.009 0.152 0.032s0.089 0.057 0.12 0.099c0.068 0.090 0.104 0.2 0.101 0.313v0.202h0.604v-0.238c0.001-0.14-0.024-0.278-0.075-0.408-0.045-0.122-0.114-0.234-0.204-0.329z"></path>
<path fill="#8e8f99" style="fill: var(--color1, #8e8f99)" d="M5.31 25.95c-0.195-0.164-0.44-0.255-0.694-0.257-0.124 0-0.248 0.023-0.364 0.066-0.119 0.042-0.228 0.107-0.322 0.191-0.101 0.091-0.182 0.202-0.237 0.327-0.061 0.143-0.092 0.297-0.089 0.452v2.239c-0.004 0.158 0.026 0.314 0.089 0.459 0.055 0.12 0.136 0.227 0.237 0.313 0.093 0.087 0.203 0.154 0.322 0.197 0.117 0.043 0.24 0.065 0.364 0.066s0.248-0.023 0.364-0.066c0.121-0.044 0.233-0.111 0.33-0.197 0.097-0.087 0.176-0.194 0.23-0.313 0.063-0.145 0.093-0.301 0.089-0.459v-2.239c0.003-0.155-0.027-0.31-0.089-0.452-0.054-0.123-0.133-0.235-0.23-0.327zM5.025 28.969c0.005 0.060-0.003 0.12-0.024 0.176s-0.054 0.107-0.097 0.148c-0.081 0.068-0.182 0.105-0.287 0.105s-0.207-0.037-0.287-0.105c-0.043-0.041-0.076-0.092-0.097-0.148s-0.029-0.116-0.024-0.176v-2.239c-0.005-0.060 0.003-0.12 0.024-0.176s0.054-0.107 0.097-0.148c0.081-0.068 0.182-0.105 0.287-0.105s0.207 0.037 0.287 0.105c0.043 0.041 0.076 0.092 0.097 0.148s0.029 0.116 0.024 0.176v2.239z"></path>
<path fill="#8e8f99" style="fill: var(--color1, #8e8f99)" d="M10.072 29.969v-4.239h-0.587l-0.771 2.244h-0.011l-0.777-2.244h-0.581v4.239h0.606v-2.579h0.011l0.593 1.823h0.302l0.598-1.823h0.011v2.579h0.606z"></path>
<path fill="#8e8f99" style="fill: var(--color1, #8e8f99)" d="M13.513 26.027c-0.093-0.105-0.211-0.184-0.343-0.232-0.142-0.046-0.29-0.068-0.439-0.066h-0.9v4.239h0.604v-1.656h0.311c0.188 0.009 0.376-0.031 0.545-0.116 0.137-0.076 0.252-0.188 0.332-0.324 0.070-0.113 0.117-0.238 0.139-0.369 0.024-0.16 0.035-0.321 0.033-0.482 0.006-0.204-0.014-0.407-0.059-0.606-0.040-0.147-0.117-0.281-0.223-0.39zM13.201 27.319c-0.003 0.077-0.022 0.152-0.056 0.221-0.035 0.065-0.089 0.117-0.156 0.149-0.089 0.040-0.187 0.058-0.285 0.053h-0.275v-1.441h0.311c0.094-0.005 0.187 0.014 0.272 0.053 0.062 0.036 0.112 0.091 0.142 0.157 0.033 0.074 0.051 0.155 0.053 0.236 0 0.089 0 0.183 0 0.282s0.006 0.2 0 0.291h-0.006z"></path>
<path fill="#8e8f99" style="fill: var(--color1, #8e8f99)" d="M16.374 25.73h-0.495l-0.934 4.239h0.604l0.177-0.911h0.823l0.177 0.911h0.604l-0.957-4.239zM15.817 28.481l0.297-1.537h0.011l0.296 1.537h-0.604z"></path>
<path fill="#8e8f99" style="fill: var(--color1, #8e8f99)" d="M20.277 28.284h-0.011l-0.912-2.554h-0.581v4.239h0.604v-2.549h0.012l0.923 2.549h0.568v-4.239h-0.604v2.554z"></path>
<path fill="#8e8f99" style="fill: var(--color1, #8e8f99)" d="M23.968 25.73l-0.486 1.685h-0.012l-0.486-1.685h-0.64l0.83 2.447v1.792h0.604v-1.792l0.83-2.447h-0.64z"></path>
<path fill="#8e8f99" style="fill: var(--color1, #8e8f99)" d="M0 31.166h0.291v0.817h0.198v-0.817h0.29v-0.167h-0.778v0.167z"></path>
<path fill="#8e8f99" style="fill: var(--color1, #8e8f99)" d="M2.447 30.998l-0.381 0.984h0.21l0.081-0.224h0.392l0.084 0.224h0.215l-0.391-0.984h-0.21zM2.416 31.593l0.134-0.365 0.134 0.365h-0.268z"></path>
<path fill="#8e8f99" style="fill: var(--color1, #8e8f99)" d="M4.866 31.62h0.227v0.127c-0.066 0.053-0.149 0.082-0.234 0.083-0.040 0.002-0.079-0.005-0.116-0.021s-0.068-0.041-0.093-0.072c-0.052-0.075-0.078-0.165-0.073-0.257 0-0.219 0.095-0.329 0.283-0.329 0.050-0.005 0.099 0.008 0.14 0.037s0.070 0.071 0.082 0.12l0.195-0.038c-0.042-0.192-0.181-0.289-0.417-0.289-0.127-0.003-0.25 0.042-0.344 0.127-0.050 0.049-0.088 0.108-0.112 0.174s-0.034 0.135-0.029 0.205c-0.006 0.135 0.039 0.267 0.126 0.369 0.048 0.050 0.107 0.088 0.171 0.113s0.134 0.035 0.203 0.031c0.154 0.004 0.304-0.052 0.417-0.157v-0.388h-0.427v0.166z"></path>
<path fill="#8e8f99" style="fill: var(--color1, #8e8f99)" d="M7.337 30.998h-0.199v0.984h0.69v-0.167h-0.49v-0.817z"></path>
<path fill="#8e8f99" style="fill: var(--color1, #8e8f99)" d="M9.426 30.998h-0.199v0.984h0.199v-0.984z"></path>
<path fill="#8e8f99" style="fill: var(--color1, #8e8f99)" d="M11.469 31.656l-0.403-0.657h-0.193v0.984h0.185v-0.643l0.395 0.643h0.198v-0.984h-0.182v0.657z"></path>
<path fill="#8e8f99" style="fill: var(--color1, #8e8f99)" d="M13.315 31.549h0.49v-0.167h-0.49v-0.216h0.528v-0.167h-0.727v0.984h0.747v-0.167h-0.548v-0.266z"></path>
<path fill="#8e8f99" style="fill: var(--color1, #8e8f99)" d="M17.792 31.387h-0.388v-0.388h-0.198v0.984h0.198v-0.43h0.388v0.43h0.198v-0.984h-0.198v0.388z"></path>
<path fill="#8e8f99" style="fill: var(--color1, #8e8f99)" d="M19.649 31.549h0.492v-0.167h-0.492v-0.216h0.529v-0.167h-0.727v0.984h0.746v-0.167h-0.548v-0.266z"></path>
<path fill="#8e8f99" style="fill: var(--color1, #8e8f99)" d="M22.168 31.549c0.171-0.027 0.258-0.117 0.258-0.274 0.005-0.042-0.001-0.084-0.018-0.123s-0.044-0.072-0.078-0.096c-0.089-0.045-0.189-0.065-0.288-0.058h-0.417v0.984h0.198v-0.412h0.039c0.042-0.003 0.084 0.005 0.123 0.022 0.029 0.018 0.053 0.043 0.070 0.072l0.215 0.313h0.237l-0.12-0.192c-0.053-0.095-0.128-0.176-0.218-0.236zM21.969 31.413h-0.146v-0.247h0.156c0.068-0.005 0.136 0.002 0.201 0.023 0.014 0.013 0.026 0.029 0.033 0.046s0.011 0.037 0.010 0.056c-0.001 0.019-0.006 0.038-0.015 0.055s-0.022 0.032-0.037 0.043c-0.065 0.020-0.133 0.028-0.201 0.023z"></path>
<path fill="#8e8f99" style="fill: var(--color1, #8e8f99)" d="M24.067 31.549h0.49v-0.167h-0.49v-0.216h0.529v-0.167h-0.729v0.984h0.747v-0.167h-0.548v-0.266z"></path>
</symbol>
<symbol id="icon-group-4" viewBox="0 0 66 32">
<path fill="#8e8f99" style="fill: var(--color1, #8e8f99)" d="M10.207 9.77h-0.002c-1.862 0-3.371 1.361-3.371 3.040v0.002c0 1.679 1.509 3.040 3.371 3.040h0.002c1.862 0 3.371-1.361 3.371-3.040v-0.002c0-1.679-1.509-3.040-3.371-3.040z"></path>
<path fill="#8e8f99" style="fill: var(--color1, #8e8f99)" d="M35.092 8.798c-0.005-2.332-1.035-4.567-2.863-6.215s-4.307-2.578-6.893-2.583v0c-2.587 0.004-5.067 0.932-6.896 2.582s-2.86 3.884-2.865 6.217v12.858c0 0 19.515-1.96 19.517-12.856v-0.002z"></path>
<path fill="#8e8f99" style="fill: var(--color1, #8e8f99)" d="M0 25.877c0.005 1.622 0.721 3.177 1.994 4.325s2.996 1.794 4.796 1.799c1.799-0.005 3.523-0.651 4.795-1.798s1.989-2.701 1.994-4.323v-8.947c0 0-13.579 1.365-13.579 8.945zM6.789 27.48c-0.352 0-0.695-0.094-0.988-0.27s-0.52-0.426-0.655-0.719-0.17-0.615-0.101-0.926c0.069-0.311 0.238-0.597 0.487-0.821s0.565-0.377 0.91-0.439c0.345-0.062 0.702-0.030 1.027 0.091s0.603 0.327 0.798 0.59c0.195 0.264 0.3 0.573 0.3 0.891 0.001 0.211-0.044 0.42-0.133 0.615s-0.22 0.373-0.385 0.522c-0.165 0.149-0.362 0.268-0.578 0.349s-0.448 0.123-0.682 0.123v-0.006z"></path>
<path fill="#8e8f99" style="fill: var(--color1, #8e8f99)" d="M19.207 24.597v3.329h-0.686v-3.329h0.686zM20.533 26.019v0.535h-1.514v-0.535h1.514zM20.693 24.597v0.537h-1.674v-0.537h1.674zM23.826 26.184v0.158c0 0.253-0.034 0.48-0.103 0.681s-0.165 0.373-0.29 0.515c-0.125 0.14-0.274 0.248-0.448 0.322-0.172 0.075-0.364 0.112-0.574 0.112-0.209 0-0.4-0.037-0.574-0.112-0.172-0.075-0.322-0.182-0.448-0.322-0.127-0.142-0.225-0.313-0.295-0.514-0.069-0.201-0.103-0.428-0.103-0.681v-0.158c0-0.255 0.034-0.482 0.103-0.681 0.069-0.201 0.165-0.373 0.29-0.514 0.127-0.142 0.276-0.25 0.448-0.325 0.174-0.075 0.365-0.112 0.574-0.112 0.21 0 0.402 0.037 0.574 0.112 0.174 0.075 0.323 0.183 0.448 0.325 0.127 0.142 0.224 0.313 0.293 0.514 0.070 0.2 0.105 0.427 0.105 0.681zM23.133 26.342v-0.162c0-0.177-0.016-0.332-0.048-0.466s-0.079-0.247-0.142-0.338-0.139-0.16-0.229-0.206c-0.090-0.047-0.193-0.071-0.309-0.071s-0.219 0.024-0.309 0.071c-0.088 0.046-0.164 0.114-0.226 0.206-0.061 0.091-0.107 0.204-0.139 0.338s-0.048 0.29-0.048 0.466v0.162c0 0.175 0.016 0.331 0.048 0.466 0.032 0.134 0.079 0.248 0.142 0.341 0.063 0.091 0.139 0.161 0.229 0.208s0.193 0.071 0.309 0.071c0.116 0 0.219-0.024 0.309-0.071s0.165-0.117 0.226-0.208c0.061-0.093 0.107-0.207 0.139-0.341 0.032-0.136 0.048-0.291 0.048-0.466zM26.053 27.055c0-0.059-0.009-0.113-0.027-0.16-0.017-0.049-0.049-0.093-0.096-0.133-0.047-0.041-0.114-0.082-0.199-0.121s-0.196-0.081-0.332-0.123c-0.151-0.049-0.294-0.104-0.43-0.165-0.134-0.061-0.253-0.132-0.357-0.213-0.102-0.082-0.183-0.178-0.242-0.286-0.058-0.108-0.087-0.234-0.087-0.377 0-0.139 0.031-0.264 0.091-0.377 0.061-0.114 0.146-0.212 0.256-0.293 0.11-0.082 0.239-0.146 0.389-0.19 0.151-0.044 0.316-0.066 0.496-0.066 0.245 0 0.46 0.044 0.642 0.133s0.325 0.21 0.425 0.364c0.102 0.154 0.153 0.33 0.153 0.528h-0.681c0-0.098-0.021-0.183-0.062-0.256-0.040-0.075-0.101-0.133-0.183-0.176-0.081-0.043-0.183-0.064-0.306-0.064-0.119 0-0.218 0.018-0.297 0.055-0.079 0.035-0.139 0.083-0.178 0.144-0.040 0.059-0.059 0.127-0.059 0.201 0 0.056 0.014 0.107 0.041 0.153 0.029 0.046 0.072 0.088 0.128 0.128s0.126 0.077 0.208 0.112c0.082 0.035 0.178 0.069 0.286 0.103 0.181 0.055 0.341 0.117 0.478 0.185 0.139 0.069 0.255 0.146 0.348 0.231s0.163 0.182 0.21 0.29c0.047 0.108 0.071 0.231 0.071 0.368 0 0.145-0.028 0.274-0.085 0.389s-0.138 0.211-0.245 0.29c-0.107 0.079-0.234 0.139-0.382 0.181s-0.313 0.062-0.496 0.062c-0.165 0-0.327-0.021-0.487-0.064-0.16-0.044-0.306-0.111-0.437-0.199-0.13-0.088-0.233-0.201-0.311-0.338s-0.117-0.3-0.117-0.487h0.688c0 0.104 0.016 0.191 0.048 0.263s0.077 0.13 0.135 0.174c0.059 0.044 0.13 0.076 0.21 0.096 0.082 0.020 0.172 0.030 0.27 0.030 0.119 0 0.216-0.017 0.293-0.050 0.078-0.034 0.135-0.080 0.171-0.14 0.038-0.059 0.057-0.127 0.057-0.201zM28.694 24.597v3.329h-0.684v-3.329h0.684zM29.718 24.597v0.537h-2.716v-0.537h2.716zM32.343 27.391v0.535h-1.772v-0.535h1.772zM30.795 24.597v3.329h-0.686v-3.329h0.686zM32.112 25.953v0.521h-1.541v-0.521h1.541zM32.341 24.597v0.537h-1.77v-0.537h1.77zM32.743 24.597h1.242c0.255 0 0.473 0.038 0.656 0.114 0.184 0.076 0.326 0.189 0.425 0.338s0.149 0.333 0.149 0.551c0 0.178-0.030 0.332-0.091 0.46-0.059 0.127-0.144 0.233-0.254 0.318-0.108 0.084-0.235 0.151-0.382 0.201l-0.217 0.114h-1.079l-0.005-0.535h0.803c0.12 0 0.22-0.021 0.3-0.064s0.139-0.102 0.178-0.178c0.041-0.076 0.062-0.165 0.062-0.265 0-0.107-0.020-0.199-0.059-0.277s-0.1-0.137-0.181-0.178-0.182-0.062-0.304-0.062h-0.556v2.792h-0.686v-3.329zM34.605 27.926l-0.759-1.484 0.725-0.005 0.768 1.457v0.032h-0.734zM38.206 26.74h-0.848v-0.535h0.848c0.131 0 0.238-0.021 0.32-0.064 0.082-0.044 0.143-0.105 0.181-0.183s0.057-0.165 0.057-0.263c0-0.099-0.019-0.191-0.057-0.277s-0.098-0.154-0.181-0.206-0.189-0.078-0.32-0.078h-0.611v2.792h-0.686v-3.329h1.297c0.261 0 0.484 0.047 0.67 0.142 0.187 0.093 0.331 0.222 0.43 0.386s0.149 0.353 0.149 0.565c0 0.215-0.050 0.401-0.149 0.558s-0.242 0.278-0.43 0.364c-0.186 0.085-0.409 0.128-0.67 0.128zM42.162 27.391v0.535h-1.772v-0.535h1.772zM40.614 24.597v3.329h-0.686v-3.329h0.686zM41.931 25.953v0.521h-1.541v-0.521h1.541zM42.16 24.597v0.537h-1.77v-0.537h1.77zM44.096 24.597v3.329h-0.684v-3.329h0.684zM45.121 24.597v0.537h-2.716v-0.537h2.716zM47.746 27.391v0.535h-1.772v-0.535h1.772zM46.198 24.597v3.329h-0.686v-3.329h0.686zM47.515 25.953v0.521h-1.541v-0.521h1.541zM47.744 24.597v0.537h-1.77v-0.537h1.77zM48.146 24.597h1.242c0.255 0 0.473 0.038 0.656 0.114 0.184 0.076 0.326 0.189 0.425 0.338s0.149 0.333 0.149 0.551c0 0.178-0.031 0.332-0.091 0.46-0.059 0.127-0.144 0.233-0.254 0.318-0.108 0.084-0.235 0.151-0.382 0.201l-0.217 0.114h-1.079l-0.005-0.535h0.803c0.12 0 0.22-0.021 0.3-0.064s0.139-0.102 0.178-0.178c0.041-0.076 0.062-0.165 0.062-0.265 0-0.107-0.020-0.199-0.059-0.277s-0.1-0.137-0.181-0.178c-0.081-0.041-0.182-0.062-0.304-0.062h-0.556v2.792h-0.686v-3.329zM50.007 27.926l-0.759-1.484 0.725-0.005 0.768 1.457v0.032h-0.734zM52.879 27.055c0-0.059-0.009-0.113-0.027-0.16-0.017-0.049-0.049-0.093-0.096-0.133-0.047-0.041-0.114-0.082-0.199-0.121s-0.196-0.081-0.332-0.123c-0.151-0.049-0.294-0.104-0.43-0.165-0.134-0.061-0.253-0.132-0.357-0.213-0.102-0.082-0.183-0.178-0.242-0.286-0.058-0.108-0.087-0.234-0.087-0.377 0-0.139 0.030-0.264 0.091-0.377 0.061-0.114 0.146-0.212 0.256-0.293 0.11-0.082 0.239-0.146 0.389-0.19 0.151-0.044 0.316-0.066 0.496-0.066 0.245 0 0.46 0.044 0.642 0.133s0.325 0.21 0.425 0.364c0.102 0.154 0.153 0.33 0.153 0.528h-0.681c0-0.098-0.021-0.183-0.062-0.256-0.040-0.075-0.101-0.133-0.183-0.176-0.081-0.043-0.183-0.064-0.306-0.064-0.119 0-0.218 0.018-0.297 0.055-0.079 0.035-0.139 0.083-0.178 0.144-0.040 0.059-0.059 0.127-0.059 0.201 0 0.056 0.014 0.107 0.041 0.153 0.029 0.046 0.072 0.088 0.128 0.128s0.126 0.077 0.208 0.112c0.082 0.035 0.178 0.069 0.286 0.103 0.181 0.055 0.341 0.117 0.478 0.185 0.139 0.069 0.255 0.146 0.348 0.231s0.163 0.182 0.21 0.29c0.047 0.108 0.071 0.231 0.071 0.368 0 0.145-0.028 0.274-0.085 0.389s-0.138 0.211-0.245 0.29c-0.107 0.079-0.234 0.139-0.382 0.181s-0.313 0.062-0.496 0.062c-0.165 0-0.327-0.021-0.487-0.064-0.16-0.044-0.306-0.111-0.437-0.199-0.13-0.088-0.233-0.201-0.311-0.338s-0.117-0.3-0.117-0.487h0.688c0 0.104 0.016 0.191 0.048 0.263s0.077 0.13 0.135 0.174c0.059 0.044 0.13 0.076 0.21 0.096 0.082 0.020 0.172 0.030 0.27 0.030 0.119 0 0.216-0.017 0.293-0.050 0.078-0.034 0.135-0.080 0.171-0.14 0.038-0.059 0.057-0.127 0.057-0.201z"></path>
</symbol>
<symbol id="icon-group-5" viewBox="0 0 44 32">
<path fill="#8e8f99" style="fill: var(--color1, #8e8f99)" d="M3.333 26.694c0.171 0.19 0.262 0.429 0.257 0.673 0.009 0.16-0.023 0.319-0.091 0.466s-0.174 0.279-0.307 0.384c-0.332 0.226-0.743 0.336-1.157 0.31h-2.035v-4.266h1.993c0.393-0.023 0.784 0.077 1.104 0.283 0.129 0.097 0.231 0.22 0.298 0.358s0.098 0.289 0.089 0.44c0.012 0.235-0.070 0.467-0.232 0.652-0.155 0.17-0.368 0.287-0.607 0.334 0.27 0.044 0.514 0.174 0.688 0.365v0zM0.947 26.050h0.852c0.194 0.013 0.386-0.037 0.542-0.142 0.064-0.052 0.114-0.117 0.145-0.189s0.045-0.15 0.037-0.228c0.006-0.077-0.007-0.155-0.038-0.227s-0.080-0.137-0.142-0.19c-0.16-0.107-0.359-0.158-0.558-0.144h-0.838v1.119zM2.424 27.686c0.068-0.053 0.122-0.12 0.157-0.195s0.050-0.157 0.044-0.238c0.005-0.082-0.011-0.165-0.046-0.24s-0.090-0.143-0.16-0.197c-0.167-0.111-0.372-0.166-0.579-0.154h-0.894v1.173h0.905c0.204 0.011 0.405-0.042 0.572-0.148v0z"></path>
<path fill="#8e8f99" style="fill: var(--color1, #8e8f99)" d="M7.408 28.528l-1.109-1.667h-0.417v1.667h-0.954v-4.266h1.806c0.455-0.029 0.905 0.101 1.257 0.363 0.252 0.232 0.405 0.537 0.429 0.86s-0.080 0.645-0.295 0.905c-0.223 0.23-0.527 0.383-0.861 0.433l1.181 1.705h-1.037zM5.882 26.28h0.78c0.542 0 0.813-0.215 0.813-0.646 0.005-0.088-0.009-0.176-0.044-0.259s-0.087-0.158-0.155-0.221c-0.171-0.128-0.392-0.19-0.613-0.173h-0.789l0.009 1.298z"></path>
<path fill="#8e8f99" style="fill: var(--color1, #8e8f99)" d="M12.621 27.67h-1.901l-0.336 0.859h-1l1.745-4.218h1.081l1.739 4.218h-1l-0.329-0.859zM12.366 27.024l-0.695-1.801-0.694 1.801h1.389z"></path>
<path fill="#8e8f99" style="fill: var(--color1, #8e8f99)" d="M19.147 28.528h-0.947l-2.123-2.901v2.901h-0.944v-4.266h0.944l2.123 2.918v-2.918h0.947v4.266z"></path>
<path fill="#8e8f99" style="fill: var(--color1, #8e8f99)" d="M24.55 27.507c-0.196 0.322-0.494 0.584-0.857 0.752-0.412 0.187-0.869 0.28-1.331 0.269h-1.685v-4.266h1.685c0.461-0.011 0.918 0.079 1.331 0.263 0.362 0.164 0.661 0.424 0.857 0.744 0.195 0.347 0.296 0.73 0.296 1.119s-0.102 0.772-0.296 1.119v0zM23.466 27.405c0.27-0.283 0.419-0.645 0.419-1.018s-0.149-0.735-0.419-1.018c-0.327-0.257-0.753-0.387-1.185-0.363h-0.657v2.761h0.657c0.433 0.024 0.859-0.106 1.185-0.363z"></path>
<path fill="#8e8f99" style="fill: var(--color1, #8e8f99)" d="M13.214 0.533c0 0 12.22 4.154 11.961 10.164v10.166c0 0-12.211-4.156-11.957-10.166l-0.005-10.164z"></path>
<path fill="#8e8f99" style="fill: var(--color1, #8e8f99)" d="M36.062 18.483c2.308-1.43 4.978-2.316 7.764-2.576v-3.182c-3.211 1.114-5.935 3.134-7.764 5.758v0z"></path>
<path fill="#8e8f99" style="fill: var(--color1, #8e8f99)" d="M34.675 19.442c1.889-3.424 5.164-6.067 9.151-7.384v-9.17c0 0-17.404 5.917-17.036 14.476v14.474c0 0 0.776-0.265 1.995-0.761 0-0.463 0-0.929 0.056-1.398 0.36-3.974 2.459-7.656 5.834-10.237v0z"></path>
<path fill="#8e8f99" style="fill: var(--color1, #8e8f99)" d="M33.020 24.819c0.091-1.004 0.295-1.997 0.609-2.963-2.102 2.229-3.374 4.995-3.639 7.909-0.025 0.275-0.039 0.55-0.046 0.834 0.989-0.427 2.139-0.961 3.347-1.588-0.308-1.379-0.4-2.79-0.271-4.191v0z"></path>
<path fill="#8e8f99" style="fill: var(--color1, #8e8f99)" d="M33.712 24.871c-0.116 1.268-0.043 2.544 0.215 3.795 4.755-2.561 10.098-6.519 9.892-11.302v-0.417c-3.397 0.342-6.575 1.679-9.047 3.805-0.579 1.318-0.936 2.706-1.060 4.118v0z"></path>
</symbol>
<symbol id="icon-group-6" viewBox="0 0 67 32">
<path fill="#8e8f99" style="fill: var(--color1, #8e8f99)" d="M33.799 15.249c-0.316-0.42-0.467-0.917-0.431-1.417v-2.054c0-0.63 0.143-1.108 0.428-1.435s0.776-0.49 1.472-0.489c0.654 0 1.118 0.139 1.392 0.418 0.299 0.355 0.445 0.79 0.412 1.229v0.483h-1.169v-0.489c0.004-0.16-0.007-0.32-0.034-0.478-0.017-0.108-0.076-0.209-0.167-0.284-0.12-0.082-0.271-0.121-0.424-0.111-0.16-0.010-0.319 0.031-0.445 0.117-0.102 0.084-0.17 0.194-0.194 0.313-0.034 0.168-0.049 0.338-0.046 0.508v2.492c-0.018 0.24 0.033 0.481 0.15 0.7 0.058 0.074 0.139 0.133 0.233 0.17s0.199 0.050 0.302 0.039c0.15 0.011 0.298-0.030 0.414-0.113 0.095-0.082 0.157-0.188 0.174-0.303 0.027-0.165 0.039-0.332 0.036-0.499v-0.506h1.169v0.462c0.033 0.457-0.109 0.911-0.404 1.291-0.269 0.305-0.726 0.458-1.399 0.458s-1.181-0.163-1.47-0.501z"></path>
<path fill="#8e8f99" style="fill: var(--color1, #8e8f99)" d="M38.668 15.269c-0.295-0.32-0.443-0.786-0.443-1.402v-2.16c0-0.61 0.148-1.072 0.443-1.385s0.789-0.469 1.482-0.468c0.688 0 1.179 0.156 1.474 0.468 0.295 0.313 0.446 0.775 0.446 1.385v2.16c0 0.61-0.15 1.078-0.45 1.4s-0.789 0.483-1.47 0.483-1.184-0.163-1.482-0.48zM40.694 14.751c0.106-0.2 0.154-0.42 0.14-0.639v-2.645c0.014-0.216-0.034-0.431-0.138-0.627-0.059-0.076-0.142-0.135-0.239-0.172s-0.204-0.050-0.308-0.037c-0.105-0.013-0.212 0-0.309 0.037s-0.18 0.096-0.24 0.172c-0.106 0.196-0.155 0.411-0.14 0.627v2.658c-0.015 0.22 0.033 0.439 0.14 0.639 0.068 0.067 0.152 0.121 0.247 0.158s0.197 0.056 0.3 0.056 0.206-0.019 0.3-0.056c0.094-0.037 0.178-0.091 0.247-0.158v-0.013z"></path>
<path fill="#8e8f99" style="fill: var(--color1, #8e8f99)" d="M43.476 9.917h1.259l0.947 3.986 0.968-3.986h1.225l0.123 5.753h-0.906l-0.097-3.998-0.935 3.998h-0.726l-0.968-4.013-0.090 4.013h-0.915l0.114-5.753z"></path>
<path fill="#8e8f99" style="fill: var(--color1, #8e8f99)" d="M49.41 9.917h1.961c1.13 0 1.695 0.545 1.695 1.634 0 1.043-0.595 1.564-1.784 1.563h-0.668v2.557h-1.211l0.007-5.753zM51.085 12.376c0.12 0.013 0.241 0.004 0.356-0.028s0.221-0.084 0.31-0.154c0.139-0.194 0.2-0.422 0.174-0.65 0.006-0.175-0.013-0.351-0.058-0.522-0.017-0.057-0.048-0.111-0.089-0.158s-0.094-0.086-0.153-0.116c-0.168-0.070-0.354-0.101-0.54-0.092h-0.47v1.719h0.47z"></path>
<path fill="#8e8f99" style="fill: var(--color1, #8e8f99)" d="M54.812 9.917h1.3l1.334 5.753h-1.128l-0.264-1.327h-1.16l-0.271 1.327h-1.145l1.334-5.753zM55.923 13.677l-0.453-2.415-0.453 2.415h0.906z"></path>
<path fill="#8e8f99" style="fill: var(--color1, #8e8f99)" d="M58.523 9.917h0.847l1.622 3.282v-3.282h1.005v5.753h-0.806l-1.632-3.426v3.426h-1.039l0.002-5.753z"></path>
<path fill="#8e8f99" style="fill: var(--color1, #8e8f99)" d="M64.351 13.477l-1.349-3.552h1.135l0.823 2.281 0.772-2.281h1.111l-1.332 3.552v2.194h-1.162v-2.194z"></path>
<path fill="#8e8f99" style="fill: var(--color1, #8e8f99)" d="M35.668 18.186v0.301h-0.988v2.338h-0.414v-2.338h-0.993v-0.301h2.395z"></path>
<path fill="#8e8f99" style="fill: var(--color1, #8e8f99)" d="M38.764 20.824h-0.32c-0.032 0.002-0.065-0.007-0.090-0.025-0.024-0.015-0.043-0.036-0.053-0.061l-0.286-0.627h-1.37l-0.286 0.627c-0.008 0.026-0.023 0.050-0.044 0.071-0.025 0.017-0.057 0.026-0.090 0.025h-0.32l1.211-2.639h0.421l1.225 2.628zM36.76 19.845h1.143l-0.484-1.074c-0.036-0.081-0.066-0.164-0.090-0.249-0.017 0.050-0.031 0.098-0.046 0.14l-0.044 0.111-0.479 1.072z"></path>
<path fill="#8e8f99" style="fill: var(--color1, #8e8f99)" d="M40.851 20.565c0.076 0.003 0.152 0.003 0.228 0 0.066-0.006 0.13-0.016 0.194-0.031 0.059-0.013 0.118-0.029 0.174-0.048 0.053-0.019 0.107-0.042 0.162-0.065v-0.593h-0.484c-0.012 0.001-0.024-0.001-0.035-0.005s-0.021-0.009-0.030-0.016c-0.008-0.006-0.014-0.013-0.018-0.022s-0.006-0.017-0.006-0.026v-0.203h0.939v1.011c-0.077 0.047-0.158 0.089-0.242 0.125-0.086 0.037-0.176 0.067-0.269 0.090-0.099 0.025-0.2 0.043-0.303 0.054-0.117 0.011-0.235 0.017-0.353 0.017-0.209 0.002-0.416-0.032-0.61-0.098-0.181-0.063-0.346-0.157-0.484-0.276-0.135-0.12-0.241-0.262-0.312-0.418-0.076-0.175-0.114-0.361-0.111-0.547-0.003-0.188 0.034-0.375 0.109-0.552 0.070-0.156 0.176-0.299 0.312-0.418 0.138-0.119 0.303-0.212 0.484-0.274 0.207-0.067 0.427-0.101 0.649-0.098 0.113-0 0.225 0.008 0.337 0.023 0.098 0.014 0.195 0.036 0.288 0.067 0.085 0.027 0.166 0.062 0.242 0.104 0.074 0.041 0.145 0.087 0.211 0.138l-0.116 0.163c-0.009 0.015-0.023 0.027-0.039 0.036s-0.036 0.014-0.055 0.014c-0.027-0.001-0.053-0.008-0.075-0.021-0.036-0.017-0.075-0.038-0.119-0.063-0.051-0.028-0.106-0.052-0.162-0.071-0.072-0.025-0.147-0.045-0.223-0.059-0.101-0.016-0.204-0.024-0.307-0.023-0.16-0.002-0.318 0.023-0.467 0.073-0.135 0.047-0.256 0.118-0.356 0.209-0.1 0.095-0.177 0.206-0.225 0.328-0.108 0.286-0.108 0.594 0 0.88 0.053 0.124 0.135 0.237 0.242 0.332 0.099 0.091 0.22 0.162 0.353 0.209 0.154 0.046 0.317 0.063 0.479 0.052z"></path>
<path fill="#8e8f99" style="fill: var(--color1, #8e8f99)" d="M44.711 20.523h1.322v0.301h-1.726v-2.639h0.414l-0.010 2.338z"></path>
<path fill="#8e8f99" style="fill: var(--color1, #8e8f99)" d="M47.408 20.824h-0.414v-2.639h0.414v2.639z"></path>
<path fill="#8e8f99" style="fill: var(--color1, #8e8f99)" d="M48.948 18.198c0.025 0.012 0.046 0.028 0.063 0.048l1.77 1.989c-0.002-0.031-0.002-0.063 0-0.094 0-0.029 0-0.059 0-0.086v-1.88h0.361v2.649h-0.208c-0.031 0.002-0.062-0.003-0.090-0.015-0.025-0.013-0.047-0.030-0.065-0.050l-1.767-1.987c0 0.031 0 0.061 0 0.090s0 0.056 0 0.081v1.88h-0.346v-2.639h0.215c0.023 0 0.046 0.004 0.068 0.012z"></path>
<path fill="#8e8f99" style="fill: var(--color1, #8e8f99)" d="M54.189 18.186v0.29h-1.467v0.871h1.189v0.28h-1.189v0.9h1.467v0.29h-1.893v-2.632h1.893z"></path>
<path fill="#8e8f99" style="fill: var(--color1, #8e8f99)" d="M10.805 1.891l18.384 4.504v15.784l-18.384-4.502v-15.786zM9.626 0.545v17.898l20.739 5.083v-17.896l-20.739-5.085z"></path>
<path fill="#8e8f99" style="fill: var(--color1, #8e8f99)" d="M20.742 31.834l-20.742-5.087v-17.896l20.742 5.085v17.898z"></path>
<path fill="#8e8f99" style="fill: var(--color1, #8e8f99)" d="M9.97 1.688l18.144 4.448-7.716 6.66-18.146-4.45 7.718-6.658zM9.626 0.545l-9.626 8.306 20.742 5.085 9.624-8.306-20.739-5.085z"></path>
<path fill="#8e8f99" style="fill: var(--color1, #8e8f99)" d="M21.909 30.827l8.457-7.299-8.457-2.074v9.374z"></path>
</symbol>
</defs>
</svg>
